# xmcd
#
# Track frame offsets:
#	150
#	14416
#	27038
#	41332
#	55738
#	71314
#	84605
#	96113
#	108930
#	123002
#	137101
#	150141
#	164212
#	177448
#	190321
#	205590
#	219132
#	233092
#	246996
#	261263
#	274442
#	289739
#	302668
#	314622
#	328470
#
# Disc length: 4574 seconds
#
# Revision: 4
# Processed by: cddbd v1.5.2PL0 Copyright (c) Steve Scherf et al.
# Submitted via: EZCDAudioConverter 7.0.9.1
#
DISCID=6311dc19
DTITLE=Tampa Red, Kokomo Arnold and Casey Bill Weldon - Triomphes du Blues 15, S
DTITLE=teel and Slide Guitarists
DYEAR=2001
DGENRE=Blues
TTITLE0=Tampa Red - King fish blues - 1934
TTITLE1=Tampa Red - Mean mistreater blues - 1934
TTITLE2=Tampa Red - I'll get a break someday - 1934
TTITLE3=Tampa Red - Boogie woogie dance - 1931
TTITLE4=Tampa Red - Black angel blues - 1934
TTITLE5=Tampa Red - Don't you lie to me - 1940
TTITLE6=Tampa Red - It hurts me too - 1940
TTITLE7=Kokomo Arnold - Old original Kokomo blues - 1934
TTITLE8=Kokomo Arnold - Milk cow blues - 1934
TTITLE9=Kokomo Arnold - The twelve (Dirty dozens) - 1934
TTITLE10=Kokomo Arnold - Policy wheel blues - 1934
TTITLE11=Kokomo Arnold - Cold winter blues - 1934
TTITLE12=Kokomo Arnold - Crying blues - 1934
TTITLE13=Kokomo Arnold - Bad luck blues - 1934
TTITLE14=Casey Bill Weldon - Two-twin' woman - 1936
TTITLE15=Casey Bill Weldon - I believe i'll make a change - 1936
TTITLE16=Casey Bill Weldon - You just as well let her go - 1936
TTITLE17=Casey Bill Weldon - Big bill blues - 1936
TTITLE18=Casey Bill Weldon - The big boat - 1936
TTITLE19=Casey Bill Weldon - Guitar swing - 1937
TTITLE20=Casey Bill Weldon - Way down in Louisiana - 1938
TTITLE21=Black Ace - Black Ace - 1937
TTITLE22=Black Ace - You gonna need my help someday - 1937
TTITLE23=Robert Nighthawk - Sweet black angel - 1949
TTITLE24=Robert Nighthawk - Annie Lee blues - 1949
EXTD=
EXTT0=
EXTT1=
EXTT2=
EXTT3=
EXTT4=
EXTT5=
EXTT6=
EXTT7=
EXTT8=
EXTT9=
EXTT10=
EXTT11=
EXTT12=
EXTT13=
EXTT14=
EXTT15=
EXTT16=
EXTT17=
EXTT18=
EXTT19=
EXTT20=
EXTT21=
EXTT22=
EXTT23=
EXTT24=
PLAYORDER=
